<?xml version="1.0" encoding="UTF-8"?>
<svg version="1.1" xmlns="http://www.w3.org/2000/svg" width="400" height="355">
<path d="M0 0 C1.812021 -0.02653167 3.62470973 -0.01972627 5.43663025 0.01295471 C6.42725967 0.00725967 7.4178891 0.00156464 8.4385376 -0.00430298 C11.71458571 -0.01542186 14.98864028 0.01667109 18.26451111 0.05030823 C20.53847011 0.05388418 22.81243358 0.055243 25.08639526 0.05447388 C29.85218546 0.05916751 34.61729926 0.08402843 39.38291931 0.12428284 C45.49888582 0.17528231 51.61410947 0.18672505 57.73026371 0.18444729 C62.42538577 0.1852621 67.12034466 0.2017003 71.81541252 0.22345161 C74.07090965 0.23301321 76.3264253 0.2389142 78.5819416 0.24113274 C81.73044114 0.24762063 84.87814482 0.2738446 88.026474 0.30592346 C88.96317932 0.3045639 89.89988464 0.30320435 90.86497498 0.30180359 C92.14985558 0.32099602 92.14985558 0.32099602 93.46069336 0.34057617 C94.20491578 0.3456037 94.9491382 0.35063124 95.71591282 0.35581112 C98.208616 0.84887678 99.07240948 1.80668246 100.66685486 3.74171448 C101.46129616 4.99966463 102.20592927 6.28990392 102.90904236 7.60108948 C103.53854797 8.76245422 103.53854797 8.76245422 104.18077087 9.94728088 C104.62992859 10.78694397 105.0790863 11.62660706 105.54185486 12.49171448 C106.52625654 14.30751066 107.51198742 16.12258673 108.49888611 17.93702698 C109.01531677 18.88738831 109.53174744 19.83774963 110.06382751 20.81690979 C112.73705754 25.69435355 115.4834908 30.52990355 118.22935486 35.36671448 C123.02759576 43.83144883 127.80135128 52.30829747 132.49497986 60.83155823 C133.8478167 63.28461519 135.23198171 65.70398757 136.65122986 68.12062073 C137.21326111 69.08870667 137.77529236 70.0567926 138.35435486 71.05421448 C138.83259705 71.85472229 139.31083923 72.6552301 139.80357361 73.47999573 C140.92582621 76.42019598 140.75951659 77.79850223 139.66685486 80.74171448 C137.76841736 82.88233948 137.76841736 82.88233948 135.29185486 84.99171448 C134.38177673 85.77417542 133.47169861 86.55663635 132.53404236 87.36280823 C128.91813632 90.36292645 125.29029666 93.34661606 121.63951111 96.30421448 C116.51235222 100.50835002 111.50517971 104.85198213 106.48277283 109.18019104 C104.66384838 110.74429978 102.84005407 112.30252524 101.01451111 113.85890198 C94.91117546 119.06514861 88.86137 124.3140121 82.92076111 129.70655823 C80.09944609 132.25405411 77.23411572 134.74829903 74.35826111 137.23390198 C73.22536619 138.24382677 72.1280381 139.29502264 71.06919861 140.38233948 C69.28896781 142.10802281 68.13989906 142.58714921 65.66685486 142.74171448 C61.70348957 139.6063503 59.70058962 134.68609037 57.28794861 130.35890198 C55.92953934 127.65435309 55.92953934 127.65435309 53.66685486 126.74171448 C52.66685486 124.59718323 52.66685486 124.59718323 51.66685486 121.92921448 C49.95051588 117.20080485 49.95051588 117.20080485 47.66685486 112.74171448 C46.67685486 112.41171448 45.68685486 112.08171448 44.66685486 111.74171448 C44.41677673 112.40300354 44.16669861 113.0642926 43.90904236 113.74562073 C42.36245089 117.47592154 40.59583112 121.06790883 38.79185486 124.67921448 C38.2833197 125.71465393 38.2833197 125.71465393 37.76451111 126.77101135 C35.66240673 130.9872093 33.36365056 134.87791974 30.66685486 138.74171448 C26.11372223 138.23139248 23.37621343 137.1018222 19.60435486 134.55421448 C12.80147457 130.72186413 7.99121763 131.98675228 0.66685486 133.74171448 C-1.53418694 134.16955517 -3.73915081 134.57012085 -5.94569397 134.96852112 C-9.07951798 135.53574639 -12.20586858 136.13954312 -15.33314514 136.74171448 C-15.81422789 138.15773161 -16.29292655 139.57455885 -16.77064514 140.99171448 C-17.03748108 141.78062073 -17.30431702 142.56952698 -17.57923889 143.38233948 C-18.25269222 145.48993435 -18.82465109 147.58925421 -19.33314514 149.74171448 C-18.75564514 150.22382385 -18.17814514 150.70593323 -17.58314514 151.20265198 C-16.84064514 151.8342926 -16.09814514 152.46593323 -15.33314514 153.11671448 C-14.59064514 153.74319885 -13.84814514 154.36968323 -13.08314514 155.01515198 C-12.21689514 155.86980042 -12.21689514 155.86980042 -11.33314514 156.74171448 C-11.33314514 157.40171448 -11.33314514 158.06171448 -11.33314514 158.74171448 C-10.76080139 158.98534729 -10.18845764 159.2289801 -9.59877014 159.47999573 C-6.92880976 160.96688746 -5.19485507 162.72255356 -3.08314514 164.92921448 C-0.0997368 168.02165104 2.91571469 170.77568677 6.29185486 173.42921448 C9.6131109 176.33863477 9.6131109 176.33863477 10.04185486 179.55421448 C8.49774066 183.13375195 6.67762294 186.33914587 4.60826111 189.64015198 C2.22537565 193.44701526 -0.05767318 197.30747154 -2.33314514 201.17921448 C-2.7692511 201.92066711 -3.20535706 202.66211975 -3.65467834 203.42604065 C-7.00157825 209.13538394 -10.22534641 214.8984054 -13.33314514 220.74171448 C-14.35487157 222.6616049 -15.37675427 224.58141145 -16.39906311 226.50099182 C-17.0818438 227.78439288 -17.76326333 229.06851946 -18.44300842 230.35353088 C-18.75995667 230.95085022 -19.07690491 231.54816956 -19.40345764 232.16358948 C-19.67947815 232.68533752 -19.95549866 233.20708557 -20.23988342 233.74464417 C-21.89472547 236.76755794 -23.62333562 239.74954782 -25.33314514 242.74171448 C-62.62314514 242.74171448 -99.91314514 242.74171448 -138.33314514 242.74171448 C-137.20816702 234.86686759 -137.20816702 234.86686759 -134.96205139 231.06202698 C-134.4749469 230.22405579 -133.98784241 229.38608459 -133.48597717 228.52272034 C-132.9611676 227.6462384 -132.43635803 226.76975647 -131.89564514 225.86671448 C-131.35794495 224.94704895 -130.82024475 224.02738342 -130.26625061 223.07984924 C-128.63380042 220.29322643 -126.9860311 217.51625537 -125.33314514 214.74171448 C-123.5394872 211.72205779 -121.7476934 208.70130847 -119.95814514 205.67921448 C-119.5466925 204.98642395 -119.13523987 204.29363342 -118.71131897 203.57984924 C-115.80052073 198.64115733 -113.19745335 193.59856255 -110.69252014 188.44093323 C-108.48511553 184.05783959 -105.91252551 179.91305617 -103.33314514 175.74171448 C-100.27888183 170.73876754 -97.28904822 165.71875668 -94.49330139 160.56593323 C-93.97010315 159.60292297 -93.44690491 158.63991272 -92.90785217 157.64772034 C-92.12837219 156.20924744 -92.12837219 156.20924744 -91.33314514 154.74171448 C-84.78851096 142.67240394 -78.18270458 130.64548644 -71.40345764 118.70606995 C-67.14621096 111.20166385 -62.95043222 103.66449861 -58.77064514 96.11671448 C-53.67009854 86.90914069 -48.50262099 77.74411579 -43.26307678 68.61500549 C-40.40828211 63.63707642 -37.60445099 58.63799451 -34.87611389 53.58937073 C-29.2757641 43.25353529 -23.56576074 32.99936284 -17.45814514 22.95387268 C-14.72667224 18.44730952 -12.17298046 13.86968972 -9.71986389 9.20655823 C-9.03343811 7.98646057 -9.03343811 7.98646057 -8.33314514 6.74171448 C-7.84604568 5.71590775 -7.35894623 4.69010101 -6.85708618 3.63320923 C-4.12553348 0.50386897 -3.85762057 0.31097469 0 0 Z " fill="#2C96CB" transform="translate(157.33314514160156,27.258285522460938)"/>
<path d="M0 0 C-1.0740809 6.29040727 -3.42246256 12.19168937 -5.55541992 18.18237305 C-6.30565216 20.29323285 -7.04669117 22.40716538 -7.78710938 24.52148438 C-11.68874984 35.58380668 -15.12137554 43.70360034 -24.05078125 51.703125 C-24.69402344 52.46109375 -25.33726562 53.2190625 -26 54 C-25.61873401 57.67714359 -23.65819913 60.70225688 -21.89453125 63.890625 C-21.57863541 64.46384491 -21.26273956 65.03706482 -20.93727112 65.62765503 C-19.90064754 67.50456921 -18.85687744 69.3773908 -17.8125 71.25 C-17.08991547 72.55317218 -16.36742295 73.85639538 -15.64501953 75.15966797 C-10.45250049 84.5028344 -5.1312546 93.76616249 0.30541992 102.96972656 C3.4699904 108.3315819 6.51917618 113.73844951 9.48193359 119.21435547 C12.0952006 124.00968781 14.80231117 128.75181135 17.5 133.5 C21.23718289 140.07779697 24.93328848 146.67336435 28.54443359 153.32128906 C30.86819621 157.59776062 33.21621659 161.86085584 35.5625 166.125 C36.01818359 166.95386719 36.47386719 167.78273437 36.94335938 168.63671875 C37.39646484 169.46042969 37.84957031 170.28414062 38.31640625 171.1328125 C38.75742676 171.93879883 39.19844727 172.74478516 39.65283203 173.57519531 C40.5670368 175.22069763 41.50108652 176.85529994 42.45263672 178.47949219 C42.91041504 179.26743164 43.36819336 180.05537109 43.83984375 180.8671875 C44.25484131 181.5669873 44.66983887 182.26678711 45.09741211 182.98779297 C46 185 46 185 46 189 C39.18641921 189.78444287 32.45280748 190.17676577 25.59667969 190.25634766 C24.60999298 190.27095032 23.62330627 190.28555298 22.60671997 190.30059814 C13.60234416 190.42558715 4.59717286 190.49513731 -4.40788651 190.54844093 C-10.44509872 190.58434047 -16.48099384 190.63807114 -22.51757812 190.73388672 C-28.37773024 190.82658268 -34.2367135 190.8753346 -40.09755707 190.89283371 C-42.32562169 190.90692942 -44.55364486 190.93657221 -46.78128815 190.98213577 C-49.89368295 191.04275686 -53.00139497 191.04687746 -56.11425781 191.03759766 C-57.03075104 191.06838409 -57.94724426 191.09917053 -58.89151001 191.13088989 C-61.54696952 191.08782754 -63.51588161 190.94930237 -66 190 C-68.60439544 187.28667036 -70.31577614 184.34460104 -72 181 C-72.54527344 179.97132813 -73.09054687 178.94265625 -73.65234375 177.8828125 C-74.07644531 176.97273437 -74.50054687 176.06265625 -74.9375 175.125 C-76.88727164 171.10359599 -78.97903329 167.35660126 -81.4375 163.625 C-84.82181421 158.45555301 -87.51561902 153.06895222 -90.234375 147.52734375 C-91.99751659 144.00496132 -93.82376193 140.56066412 -95.75 137.125 C-96.30171875 136.13757813 -96.8534375 135.15015625 -97.421875 134.1328125 C-98.20304687 133.07707031 -98.20304687 133.07707031 -99 132 C-102.1309046 131.67663025 -102.1309046 131.67663025 -104.34423828 133.98779297 C-105.24384277 134.89674316 -106.14344727 135.80569336 -107.0703125 136.7421875 C-107.55200897 137.22575714 -108.03370544 137.70932678 -108.52999878 138.20755005 C-109.547122 139.23139621 -110.56064058 140.25883406 -111.57080078 141.28955078 C-113.11893684 142.86881493 -114.67746469 144.4371831 -116.23828125 146.00390625 C-121.17819484 150.58523903 -121.17819484 150.58523903 -125 156 C-129.17067634 156.54318689 -130.65354284 156.25984287 -134.078125 153.69140625 C-135.14945821 152.66286619 -136.20620688 151.61897783 -137.25 150.5625 C-138.3887797 149.46037594 -139.52810871 148.35881919 -140.66796875 147.2578125 C-141.22790527 146.70770508 -141.7878418 146.15759766 -142.36474609 145.59082031 C-144.70855886 143.31069431 -147.12951594 141.12177902 -149.5625 138.9375 C-150.32691406 138.24527344 -151.09132812 137.55304688 -151.87890625 136.83984375 C-153.97069742 134.96610697 -153.97069742 134.96610697 -156.27734375 133.37890625 C-156.84582031 132.92386719 -157.41429687 132.46882812 -158 132 C-158 131.34 -158 130.68 -158 130 C-158.58265625 129.74605469 -159.1653125 129.49210938 -159.765625 129.23046875 C-162.24188033 127.86679667 -163.80520626 126.35774797 -165.75 124.3125 C-168.29721176 121.69997512 -170.85638648 119.18899229 -173.625 116.8125 C-178.23529829 112.85425585 -182.6529585 108.69466229 -187.07666016 104.53051758 C-187.94363525 103.71877075 -187.94363525 103.71877075 -188.828125 102.890625 C-189.64893555 102.1162207 -189.64893555 102.1162207 -190.48632812 101.32617188 C-192.06645112 99.8623629 -192.06645112 99.8623629 -194.421875 98.546875 C-196 97 -196 97 -196.25 93.3125 C-196.1675 92.219375 -196.085 91.12625 -196 90 C-193.54365019 89.48800649 -191.08568313 88.99036953 -188.625 88.5 C-187.94566406 88.35691406 -187.26632813 88.21382813 -186.56640625 88.06640625 C-176.30118692 86.05173703 -169.41990152 86.45601515 -160.375 91.9375 C-159.5190625 92.43169434 -158.663125 92.92588867 -157.78125 93.43505859 C-156.02978689 94.447542 -154.28330288 95.46868917 -152.54199219 96.49853516 C-149.41014989 98.34840359 -146.25455871 100.15327531 -143.08837891 101.94360352 C-141.73001638 102.71202955 -140.37528952 103.48693054 -139.02490234 104.26928711 C-134.75841268 106.94421576 -134.75841268 106.94421576 -130 108 C-127.60567911 106.35792097 -127.60567911 106.35792097 -125.375 104.0625 C-121.18010292 100 -121.18010292 100 -119 100 C-119 99.34 -119 98.68 -119 98 C-117.3828125 96.58984375 -117.3828125 96.58984375 -115.125 94.9375 C-111.61339618 92.2886846 -108.30609861 89.53365688 -105.0625 86.5625 C-101.83768899 83.61594695 -98.56517033 80.81658927 -95.125 78.125 C-90.73099743 74.66618421 -86.62547515 70.94837898 -82.53613281 67.14160156 C-78.38561631 63.2995155 -74.05410633 59.72694521 -69.6484375 56.1796875 C-67.02724881 54.02242601 -64.50845719 51.78689 -62 49.5 C-47.14285714 36 -47.14285714 36 -44 36 C-43.67 35.01 -43.34 34.02 -43 33 C-40.98828125 31.16015625 -40.98828125 31.16015625 -38.3125 29.0625 C-33.84284358 25.49486998 -29.45538832 21.86035932 -25.125 18.125 C-23.94543325 17.11053667 -22.76574493 16.09621467 -21.5859375 15.08203125 C-20.99780273 14.57623535 -20.40966797 14.07043945 -19.80371094 13.54931641 C-16.7923399 10.96266771 -13.7739492 8.38442869 -10.75 5.8125 C-10.20102051 5.34279785 -9.65204102 4.8730957 -9.08642578 4.38916016 C-3.91682475 0 -3.91682475 0 0 0 Z " fill="#1DA8A4" transform="translate(343,80)"/>
<path d="M0 0 C1.30908328 3.92724983 0.10089084 6.30229998 -1.28125 10.01171875 C-1.65799866 11.04230156 -1.65799866 11.04230156 -2.0423584 12.09370422 C-2.57899916 13.550532 -3.12068644 15.00550917 -3.66699219 16.45874023 C-4.48794174 18.65523744 -5.27978293 20.86076349 -6.0703125 23.06835938 C-8.93221826 30.85757729 -11.91289343 37.18277425 -18 43 C-19.05434289 44.2183108 -20.09773508 45.44627201 -21.125 46.6875 C-23.61803892 49.60586052 -26.28508112 52.28508112 -29 55 C-30.19143412 56.35315582 -31.37976865 57.70904222 -32.56640625 59.06640625 C-39.90855436 67.24943351 -47.82020969 74.88754765 -55.625 82.625 C-58.74516961 85.71837061 -61.86186503 88.81518315 -64.9765625 91.9140625 C-65.67778229 92.60698395 -66.37900208 93.2999054 -67.10147095 94.01382446 C-71.0431106 97.93606436 -74.79724991 101.95716497 -78.41246033 106.18293762 C-81.11663737 109.27807814 -84.02104013 112.16881544 -86.9375 115.0625 C-87.54940186 115.67246826 -88.16130371 116.28243652 -88.79174805 116.91088867 C-92.4594446 120.54356677 -96.20731887 124.02219639 -100.140625 127.3671875 C-106.04653592 132.55347062 -111.32149553 138.30858219 -116.42578125 144.26953125 C-118.41830204 146.45982085 -120.60854657 148.26076114 -123 150 C-126.92352034 148.38388329 -129.71403563 145.68672598 -132.75 142.8125 C-133.83136562 141.80397332 -134.91339592 140.79615886 -135.99609375 139.7890625 C-136.77702393 139.06058105 -136.77702393 139.06058105 -137.57373047 138.31738281 C-139.2872394 136.73468952 -141.04152947 135.20547474 -142.8125 133.6875 C-147.3962788 129.71362108 -151.79858559 125.54628845 -156.2253418 121.3996582 C-160.1724933 117.7029642 -164.13544813 114.02591617 -168.125 110.375 C-169.07503906 109.50488281 -170.02507812 108.63476562 -171.00390625 107.73828125 C-172.57714529 106.29891247 -174.15219756 104.86163468 -175.72998047 103.42724609 C-177.5101717 101.80858267 -179.28649386 100.18575275 -181.0625 98.5625 C-181.61115723 98.0660498 -182.15981445 97.56959961 -182.72509766 97.05810547 C-185.46438183 94.54859537 -187.90106601 92.07214213 -190 89 C-187.19889238 86.19889238 -184.0741376 86.00105945 -180.3125 85.3125 C-179.61705078 85.17005859 -178.92160156 85.02761719 -178.20507812 84.88085938 C-168.87976967 83.13073146 -162.97862102 85.74815263 -155.0625 90.5 C-153.1992433 91.58728165 -151.33596177 92.67452077 -149.47265625 93.76171875 C-146.82713889 95.32327347 -144.18476883 96.88980056 -141.54638672 98.46337891 C-139.37075443 99.75785934 -137.18614575 101.03588828 -135 102.3125 C-134.36070557 102.70308594 -133.72141113 103.09367187 -133.06274414 103.49609375 C-130.39927556 105.0457482 -128.48172863 106.00643258 -125.3671875 105.96484375 C-122.46567685 104.78221482 -120.51124336 103.2868557 -118.125 101.25 C-117.16464844 100.43660156 -116.20429688 99.62320313 -115.21484375 98.78515625 C-114.14238715 97.85774364 -113.07081439 96.92930825 -112 96 C-110.81387701 94.97777764 -109.62767631 93.95564544 -108.44140625 92.93359375 C-105.90281552 90.74108356 -103.3696615 88.54246918 -100.83984375 86.33984375 C-97.15363047 83.13107575 -93.4573609 79.93431164 -89.75 76.75 C-89.17032471 76.25209961 -88.59064941 75.75419922 -87.9934082 75.24121094 C-84.49771157 72.25014503 -80.95630242 69.32614364 -77.375 66.4375 C-72.9159004 62.82183713 -68.68518194 58.99789396 -64.484375 55.09008789 C-60.35074192 51.26634343 -56.03469848 47.71131883 -51.6484375 44.1796875 C-49.02724881 42.02242601 -46.50845719 39.78689 -44 37.5 C-39.6772175 33.56085588 -35.19763826 29.86190361 -30.65234375 26.18359375 C-28.21316337 24.1754909 -25.84786959 22.11350115 -23.5 20 C-19.33419214 16.25151815 -15.01538351 12.71758578 -10.6640625 9.1875 C-7.03524164 6.20782305 -3.50518329 3.12353009 0 0 Z " fill="#FDFEFE" transform="translate(338,84)"/>
<path d="M0 0 C4.28709786 1.42903262 5.2897231 4.59166596 7.3125 8.375 C7.90526733 9.45950439 7.90526733 9.45950439 8.51000977 10.56591797 C9.30694517 12.02564312 10.10019783 13.48738525 10.88964844 14.95117188 C11.86028918 16.74220466 12.85403065 18.52067904 13.8515625 20.296875 C18.84856831 29.20779176 18.84856831 29.20779176 20 34 C19.09716797 36.7890625 19.09716797 36.7890625 17.4921875 39.625 C16.62980469 41.17960937 16.62980469 41.17960937 15.75 42.765625 C15.13125 43.83296875 14.5125 44.9003125 13.875 46 C13.27945313 47.06734375 12.68390625 48.1346875 12.0703125 49.234375 C9.22891253 54.28854664 6.31888923 59.24457663 3 64 C-0.86935118 62.90864454 -3.77099955 61.47874661 -7.0625 59.25 C-12.24793599 56.24051684 -16.27225903 57.19929935 -21.95703125 58.37890625 C-25.43178432 59.08813056 -28.47625667 59.16389504 -32 59 C-31.0722928 54.69763252 -28.99799817 51.21305552 -26.8125 47.4375 C-25.98896972 45.99644424 -25.16605454 44.5550368 -24.34375 43.11328125 C-23.9415625 42.41025879 -23.539375 41.70723633 -23.125 40.98291016 C-21.6501957 38.38343955 -20.22828296 35.75700077 -18.8125 33.125 C-16.98633013 29.74859253 -15.07536198 26.45575222 -13.0625 23.1875 C-9.89189177 17.98937124 -7.25576796 12.58092576 -4.61328125 7.1015625 C-3.25124565 4.48302432 -1.85810513 2.27912593 0 0 Z " fill="#09ABB0" transform="translate(183,99)"/>
<path d="M0 0 C3.01714201 2.79303462 5.00043157 5.44908071 6.91796875 9.078125 C7.44640381 10.0671582 7.97483887 11.05619141 8.51928711 12.07519531 C9.06979736 13.12288086 9.62030762 14.17056641 10.1875 15.25 C11.33696756 17.41750218 12.48801576 19.58416683 13.640625 21.75 C14.20587891 22.8121875 14.77113281 23.874375 15.35351562 24.96875 C16.82615475 27.67994327 18.34848207 30.34639972 19.921875 33 C20.56539917 34.09199707 20.56539917 34.09199707 21.22192383 35.20605469 C22.01365238 36.53731628 22.81764112 37.86138654 23.63549805 39.17675781 C26.11081424 43.37205263 26.11081424 43.37205263 25.63671875 46.05859375 C23.16434412 48.9912195 20.32847939 51.37592755 17.375 53.8125 C16.10502146 54.87576806 14.83548788 55.93956783 13.56640625 57.00390625 C12.95297363 57.5158252 12.33954102 58.02774414 11.70751953 58.55517578 C8.91469577 60.91833434 6.2277248 63.39768422 3.55078125 65.890625 C2 67 2 67 -1 67 C-1.32871094 66.319375 -1.65742188 65.63875 -1.99609375 64.9375 C-5.41739263 57.96509686 -9.08307953 51.18024359 -12.92749023 44.43359375 C-13.95746492 42.62569053 -14.97913221 40.81306119 -16 39 C-16.43828125 38.2884375 -16.8765625 37.576875 -17.328125 36.84375 C-18.30341793 34.16736476 -17.85362574 32.71105213 -17 30 C-15.89036865 27.65052546 -14.74907191 25.39698791 -13.5 23.125 C-13.15195313 22.48167725 -12.80390625 21.83835449 -12.4453125 21.17553711 C-8.51642825 13.98738563 -4.27922303 6.98345425 0 0 Z " fill="#068993" transform="translate(223,99)"/>
<path d="M0 0 C-1.0740809 6.29040727 -3.42246256 12.19168937 -5.55541992 18.18237305 C-6.30565216 20.29323285 -7.04669117 22.40716538 -7.78710938 24.52148438 C-14.55635211 43.70324992 -14.55635211 43.70324992 -21 47 C-23.399914 48.92493102 -25.70266706 50.95424819 -28 53 C-26.60394093 49.72599346 -25.04904063 48.10079139 -22.3125 45.875 C-16.50204566 40.22215292 -14.44912835 32.8815918 -11.84228516 25.39550781 C-10.73774821 22.25414071 -9.56011548 19.14266089 -8.37939453 16.02929688 C-7.23993294 13.02433302 -6.12032084 10.01214468 -5 7 C-5.33 6.67 -5.66 6.34 -6 6 C-6.42667969 6.37769531 -6.85335937 6.75539063 -7.29296875 7.14453125 C-15.61571148 14.47197691 -24.07177246 21.64455219 -32.6875 28.625 C-37.08226641 32.19932521 -41.28703483 35.93857678 -45.47265625 39.75390625 C-48.06962393 42.06187598 -50.73404013 44.25555863 -53.4375 46.4375 C-58.211403 50.29825137 -62.73388428 54.37437075 -67.25 58.53125 C-70.81184229 61.72881296 -74.52565833 64.71388343 -78.25 67.71875 C-81.08099578 70.06718968 -83.79383598 72.50909902 -86.5 75 C-90.86769492 79.01605847 -95.36849236 82.79385454 -99.984375 86.51953125 C-103.54676422 89.44973482 -107.02334128 92.46912279 -110.5 95.5 C-111.77971588 96.60703912 -113.05966074 97.7138136 -114.33984375 98.8203125 C-116.6444968 100.81394868 -118.92630503 102.82881097 -121.19140625 104.8671875 C-122.13886719 105.69476563 -123.08632812 106.52234375 -124.0625 107.375 C-124.87847656 108.10460937 -125.69445312 108.83421875 -126.53515625 109.5859375 C-129.85573142 111.49092674 -131.31905632 110.89623702 -135 110 C-138.00097656 108.60473633 -138.00097656 108.60473633 -141.140625 106.83203125 C-141.70771179 106.51473557 -142.27479858 106.19743988 -142.85906982 105.87052917 C-144.6608742 104.85949266 -146.45532528 103.83612749 -148.25 102.8125 C-149.43835857 102.14439281 -150.62715769 101.47706857 -151.81640625 100.81054688 C-157.90866184 97.38238845 -163.91459776 93.87778334 -169.75878906 90.0378418 C-174.11341018 88.02133914 -178.45190385 89.06722215 -183 90 C-184.44439453 90.26490234 -184.44439453 90.26490234 -185.91796875 90.53515625 C-188.28866542 90.9865583 -190.64496527 91.47382087 -193 92 C-193.32096833 95.0547485 -193.32096833 95.0547485 -191.3125 97.015625 C-190.549375 97.75296875 -189.78625 98.4903125 -189 99.25 C-188.2575 99.97703125 -187.515 100.7040625 -186.75 101.453125 C-184.58549958 103.45774755 -182.39762821 105.40883144 -180.171875 107.34375 C-176.10428849 110.88335082 -172.16778145 114.54614555 -168.25 118.25 C-155.70481242 130.05878244 -143.00733492 141.70033195 -130 153 C-122.52511912 150.96139612 -117.82334304 143.83166463 -112.9765625 138.19921875 C-109.16525871 133.95857836 -105.06711097 129.99346107 -101 126 C-97.15625 127.671875 -97.15625 127.671875 -95.75 130.625 C-95.5025 131.40875 -95.255 132.1925 -95 133 C-96.98 132.34 -98.96 131.68 -101 131 C-104.26043195 134.23574034 -107.51758669 137.47473068 -110.77172852 140.71679688 C-111.8795536 141.81958861 -112.98827393 142.92148176 -114.09790039 144.02246094 C-115.6913208 145.60377221 -117.28150948 147.18827124 -118.87109375 148.7734375 C-119.36902939 149.26621185 -119.86696503 149.75898621 -120.37998962 150.26669312 C-123.02334742 152.88137668 -123.02334742 152.88137668 -125 156 C-129.17067634 156.54318689 -130.65354284 156.25984287 -134.078125 153.69140625 C-135.14945821 152.66286619 -136.20620688 151.61897783 -137.25 150.5625 C-138.3887797 149.46037594 -139.52810871 148.35881919 -140.66796875 147.2578125 C-141.22790527 146.70770508 -141.7878418 146.15759766 -142.36474609 145.59082031 C-144.70855886 143.31069431 -147.12951594 141.12177902 -149.5625 138.9375 C-150.32691406 138.24527344 -151.09132812 137.55304688 -151.87890625 136.83984375 C-153.97069742 134.96610697 -153.97069742 134.96610697 -156.27734375 133.37890625 C-156.84582031 132.92386719 -157.41429687 132.46882812 -158 132 C-158 131.34 -158 130.68 -158 130 C-158.58265625 129.74605469 -159.1653125 129.49210938 -159.765625 129.23046875 C-162.24188033 127.86679667 -163.80520626 126.35774797 -165.75 124.3125 C-168.29721176 121.69997512 -170.85638648 119.18899229 -173.625 116.8125 C-178.23529829 112.85425585 -182.6529585 108.69466229 -187.07666016 104.53051758 C-187.94363525 103.71877075 -187.94363525 103.71877075 -188.828125 102.890625 C-189.64893555 102.1162207 -189.64893555 102.1162207 -190.48632812 101.32617188 C-192.06645112 99.8623629 -192.06645112 99.8623629 -194.421875 98.546875 C-196 97 -196 97 -196.25 93.3125 C-196.1675 92.219375 -196.085 91.12625 -196 90 C-193.54365019 89.48800649 -191.08568313 88.99036953 -188.625 88.5 C-187.94566406 88.35691406 -187.26632813 88.21382813 -186.56640625 88.06640625 C-176.30118692 86.05173703 -169.41990152 86.45601515 -160.375 91.9375 C-159.5190625 92.43169434 -158.663125 92.92588867 -157.78125 93.43505859 C-156.02978689 94.447542 -154.28330288 95.46868917 -152.54199219 96.49853516 C-149.41014989 98.34840359 -146.25455871 100.15327531 -143.08837891 101.94360352 C-141.73001638 102.71202955 -140.37528952 103.48693054 -139.02490234 104.26928711 C-134.75841268 106.94421576 -134.75841268 106.94421576 -130 108 C-127.60567911 106.35792097 -127.60567911 106.35792097 -125.375 104.0625 C-121.18010292 100 -121.18010292 100 -119 100 C-119 99.34 -119 98.68 -119 98 C-117.3828125 96.58984375 -117.3828125 96.58984375 -115.125 94.9375 C-111.61339618 92.2886846 -108.30609861 89.53365688 -105.0625 86.5625 C-101.83768899 83.61594695 -98.56517033 80.81658927 -95.125 78.125 C-90.73099743 74.66618421 -86.62547515 70.94837898 -82.53613281 67.14160156 C-78.38561631 63.2995155 -74.05410633 59.72694521 -69.6484375 56.1796875 C-67.02724881 54.02242601 -64.50845719 51.78689 -62 49.5 C-47.14285714 36 -47.14285714 36 -44 36 C-43.67 35.01 -43.34 34.02 -43 33 C-40.98828125 31.16015625 -40.98828125 31.16015625 -38.3125 29.0625 C-33.84284358 25.49486998 -29.45538832 21.86035932 -25.125 18.125 C-23.94543325 17.11053667 -22.76574493 16.09621467 -21.5859375 15.08203125 C-20.99780273 14.57623535 -20.40966797 14.07043945 -19.80371094 13.54931641 C-16.7923399 10.96266771 -13.7739492 8.38442869 -10.75 5.8125 C-10.20102051 5.34279785 -9.65204102 4.8730957 -9.08642578 4.38916016 C-3.91682475 0 -3.91682475 0 0 0 Z " fill="#2DA4BB" transform="translate(343,80)"/>
<path d="M0 0 C1 2 1 2 1.30078125 4.11328125 C2.28309424 8.1687522 4.20075213 11.53820667 6.1875 15.1875 C6.59025146 15.9398291 6.99300293 16.6921582 7.40795898 17.46728516 C10.10148722 22.46134529 12.93456683 27.34265951 16.00390625 32.1171875 C17 34 17 34 17 37 C20.63177507 34.95953274 23.58268448 32.71381615 26.625 29.875 C31.21288115 25.6596686 35.97211294 21.72484147 40.84765625 17.84765625 C43.07134779 16.18011158 43.07134779 16.18011158 44 14 C44.99 14.33 45.98 14.66 47 15 C46.57589844 15.4125 46.15179688 15.825 45.71484375 16.25 C42.52050162 19.39519841 39.46188754 22.57952438 36.5625 26 C33.56018364 29.49027748 30.31562611 32.49424282 26.796875 35.45703125 C24.98514086 36.96771541 24.98514086 36.96771541 23.390625 38.64453125 C21.61819617 40.37215148 20.46829288 40.8457317 18 41 C14.03663472 37.86463582 12.03373476 32.94437589 9.62109375 28.6171875 C8.26268448 25.91263861 8.26268448 25.91263861 6 25 C5 22.85546875 5 22.85546875 4 20.1875 C2.28366102 15.45909038 2.28366102 15.45909038 0 11 C-0.99 10.67 -1.98 10.34 -3 10 C-3.37511719 10.99193359 -3.37511719 10.99193359 -3.7578125 12.00390625 C-5.30440397 15.73420707 -7.07102374 19.32619435 -8.875 22.9375 C-9.21402344 23.62779297 -9.55304688 24.31808594 -9.90234375 25.02929688 C-12.00444813 29.24549482 -14.3032043 33.13620526 -17 37 C-21.53432712 36.47399142 -24.56189269 35.31686414 -28.4375 32.9375 C-32.91874374 30.38373831 -35.76683004 29.476683 -41 30 C-42.67557379 29.71479595 -44.34817245 29.40044304 -46 29 C-42.26480216 26.66550135 -38.37230302 25.45260682 -34 26 C-30.40672447 27.61382199 -27.14648598 29.42476295 -23.7578125 31.43359375 C-21.23876004 33.16462748 -21.23876004 33.16462748 -19 33 C-16.87327443 29.25124086 -14.75567742 25.49751601 -12.64624023 21.73901367 C-11.92800103 20.46223386 -11.20732452 19.18682185 -10.48413086 17.9128418 C-9.44254654 16.07698672 -8.40994723 14.23632351 -7.37890625 12.39453125 C-6.7557251 11.28956299 -6.13254395 10.18459473 -5.49047852 9.04614258 C-4.13605809 6.27806664 -3.41710393 4.03325876 -3 1 C-2.01 0.67 -1.02 0.34 0 0 Z " fill="#43A8C6" transform="translate(205,129)"/>
<path d="M0 0 C0.85013672 0.49113281 1.70027344 0.98226562 2.57617188 1.48828125 C4.22976177 2.44595879 5.87830354 3.41242038 7.52099609 4.38867188 C10.59605418 6.21549095 13.70292948 7.98272041 16.8125 9.75 C16.4825 10.74 16.1525 11.73 15.8125 12.75 C12.30616842 10.79437737 8.80074342 8.83714058 5.29614258 6.87841797 C4.10433222 6.21261118 2.9122771 5.54724231 1.7199707 4.88232422 C0.00407316 3.92531258 -1.71086614 2.96658348 -3.42578125 2.0078125 C-4.45743408 1.4317627 -5.48908691 0.85571289 -6.55200195 0.26220703 C-8.4718677 -0.83938152 -10.34579434 -2.02219623 -12.1875 -3.25 C-19.23237189 -3.390663 -26.34171418 -1.77953566 -33.1875 -0.25 C-33.50846833 2.8047485 -33.50846833 2.8047485 -31.5 4.765625 C-30.3553125 5.87164062 -30.3553125 5.87164062 -29.1875 7 C-28.36765625 7.79535156 -27.5478125 8.59070313 -26.703125 9.41015625 C-23.85979953 12.05480215 -20.9337673 14.58469519 -17.984375 17.109375 C-15.41848184 19.45214701 -13.32311471 22.01374366 -11.1875 24.75 C-14.1875 24.75 -14.1875 24.75 -16.28125 22.87890625 C-17.0753125 22.03199219 -17.869375 21.18507812 -18.6875 20.3125 C-23.85539771 14.96954831 -29.37008737 10.38492585 -35.1875 5.75 C-36.1875 4.75 -36.1875 4.75 -36.25 1.1875 C-36.229375 0.053125 -36.20875 -1.08125 -36.1875 -2.25 C-33.73115019 -2.76199351 -31.27318313 -3.25963047 -28.8125 -3.75 C-28.13316406 -3.89308594 -27.45382813 -4.03617188 -26.75390625 -4.18359375 C-16.16901372 -6.26100256 -9.32922983 -5.63626029 0 0 Z " fill="#32A0C6" transform="translate(183.1875,172.25)"/>
<path d="M0 0 C0.99 0.33 1.98 0.66 3 1 C2.57589844 1.4125 2.15179688 1.825 1.71484375 2.25 C-1.47949838 5.39519841 -4.53811246 8.57952438 -7.4375 12 C-10.43981636 15.49027748 -13.68437389 18.49424282 -17.203125 21.45703125 C-18.88683736 22.90282773 -20.45305067 24.41007985 -22 26 C-22.99 25.67 -23.98 25.34 -25 25 C-24.48050781 24.49210937 -23.96101562 23.98421875 -23.42578125 23.4609375 C-20.34665375 20.42165084 -17.36692619 17.46609543 -14.6875 14.0625 C-11.50223105 10.06162586 -7.3257773 7.09566451 -3.328125 3.953125 C-0.94099333 2.21348751 -0.94099333 2.21348751 0 0 Z " fill="#39A7C2" transform="translate(249,143)"/>
<path d="M0 0 C3.92825121 2.38682531 3.92825121 2.38682531 8.375 2.9375 C8.375 3.5975 8.375 4.2575 8.375 4.9375 C5.19187237 5.94300061 3.81291034 6.13837038 0.7265625 4.72265625 C-0.62308594 3.86994141 -0.62308594 3.86994141 -2 3 C-6.51915556 0.36382592 -9.31228166 -0.59377183 -14.625 -0.0625 C-16.30057379 -0.34770405 -17.97317245 -0.66205696 -19.625 -1.0625 C-12.26878054 -5.14928859 -7.08668894 -4.12902124 0 0 Z " fill="#55B2D0" transform="translate(178.625,159.0625)"/>
<path d="M0 0 C1 3 1 3 -0.4765625 6.3203125 C-1.18162095 7.5947389 -1.89827921 8.86280074 -2.625 10.125 C-2.96917969 10.77082031 -3.31335938 11.41664063 -3.66796875 12.08203125 C-5.40641448 15.14195233 -6.36873514 16.78839291 -9.7734375 17.9296875 C-10.50820312 17.95289063 -11.24296875 17.97609375 -12 18 C-12 17.34 -12 16.68 -12 16 C-11.01 16 -10.02 16 -9 16 C-8.9071875 14.7625 -8.9071875 14.7625 -8.8125 13.5 C-7.49828608 7.8387708 -4.86196292 3.24130862 0 0 Z " fill="#3DA6C7" transform="translate(196,148)"/>
<path d="M0 0 C0.66 0.33 1.32 0.66 2 1 C-1.33333333 4.33333333 -4.66666667 7.66666667 -8 11 C-10.2477975 8.94766315 -11.0022242 7.99332739 -12 5 C-11.34 4.34 -10.68 3.68 -10 3 C-9.67 4.32 -9.34 5.64 -9 7 C-5.46627288 5.03681826 -2.75520215 2.95929119 0 0 Z " fill="#55B1C7" transform="translate(231,159)"/>
<path d="M0 0 C0.99 0.33 1.98 0.66 3 1 C2.31164062 1.67095703 2.31164062 1.67095703 1.609375 2.35546875 C-1.83552299 5.74970648 -5.07255085 9.13576712 -8 13 C-8.66 12.67 -9.32 12.34 -10 12 C-7.42020069 7.79588261 -4.92167866 4.96775683 -1 2 C-0.67 1.34 -0.34 0.68 0 0 Z " fill="#50AFC5" transform="translate(249,143)"/>
<path d="M0 0 C0.66 0.33 1.32 0.66 2 1 C-0.1984266 4.29763989 -1.65664253 4.99398552 -5 7 C-7.3915261 8.93505224 -9.70275603 10.95432741 -12 13 C-10.53438126 9.60312324 -8.63352456 7.39277314 -6 4.8125 C-4.948125 3.77029297 -4.948125 3.77029297 -3.875 2.70703125 C-2 1 -2 1 0 0 Z " fill="#3DABBB" transform="translate(327,120)"/>
<path d="M0 0 C1.32 0.33 2.64 0.66 4 1 C1.03 5.95 1.03 5.95 -2 11 C-3 9 -3 9 -2.44140625 6.8359375 C-2.15136719 6.02382812 -1.86132812 5.21171875 -1.5625 4.375 C-1.27503906 3.55773437 -0.98757812 2.74046875 -0.69140625 1.8984375 C-0.46324219 1.27195312 -0.23507813 0.64546875 0 0 Z " fill="#5DA7E3" transform="translate(121,83)"/>
<path d="M0 0 C0 4.24645065 -1.81750806 6.38524772 -4 10 C-5.1875 8.3125 -5.1875 8.3125 -6 6 C-4.8125 3.3125 -4.8125 3.3125 -3 1 C-2.01 0.67 -1.02 0.34 0 0 Z " fill="#4AAAD4" transform="translate(31,248)"/>
<path d="M0 0 C0.99 0.33 1.98 0.66 3 1 C0.525 5.455 0.525 5.455 -2 10 C-2.66 9.67 -3.32 9.34 -4 9 C-2.80100302 5.9168649 -1.52299523 2.93720508 0 0 Z " fill="#59A1E5" transform="translate(151,30)"/>
<path d="M0 0 C0.66 0 1.32 0 2 0 C1.875 1.75 1.875 1.75 1 4 C-2.0625 6.25 -2.0625 6.25 -5 8 C-4.1875 5.5625 -4.1875 5.5625 -3 3 C-2.01 2.67 -1.02 2.34 0 2 C0 1.34 0 0.68 0 0 Z " fill="#30ABC3" transform="translate(224,178)"/>
<path d="M0 0 C0.33 0.66 0.66 1.32 1 2 C0.0390625 3.9453125 0.0390625 3.9453125 -1.375 6.125 C-1.83648437 6.84945312 -2.29796875 7.57390625 -2.7734375 8.3203125 C-3.17820313 8.87460937 -3.58296875 9.42890625 -4 10 C-4.33 10 -4.66 10 -5 10 C-5 8.35 -5 6.7 -5 5 C-4.360625 4.731875 -3.72125 4.46375 -3.0625 4.1875 C-0.66868314 3.11332248 -0.66868314 3.11332248 0 0 Z " fill="#5DA3E5" transform="translate(147,41)"/>
<path d="M0 0 C0 3.61537605 -0.89229241 5.11165997 -3 8 C-3.99 8 -4.98 8 -6 8 C-4.125 3.25 -4.125 3.25 -3 1 C-2.01 0.67 -1.02 0.34 0 0 Z " fill="#4FABE7" transform="translate(141,52)"/>
<path d="M0 0 C0.33 0.66 0.66 1.32 1 2 C-0.98 4.97 -0.98 4.97 -3 8 C-3.66 7.01 -4.32 6.02 -5 5 C-4.1875 3.0625 -4.1875 3.0625 -3 1 C-2.01 0.67 -1.02 0.34 0 0 Z " fill="#56AAD8" transform="translate(50,214)"/>
<path d="M0 0 C0.99 0 1.98 0 3 0 C2.34 1.98 1.68 3.96 1 6 C0.01 6 -0.98 6 -2 6 C-1.34 4.02 -0.68 2.04 0 0 Z " fill="#53A3DC" transform="translate(97,126)"/>
<path d="M0 0 C0.99 0.33 1.98 0.66 3 1 C4.1875 3.5625 4.1875 3.5625 5 6 C2.69 5.34 0.38 4.68 -2 4 C-1.34 2.68 -0.68 1.36 0 0 Z " fill="#42B0BC" transform="translate(243,207)"/>
<path d="M0 0 C1.04187157 3.12561472 1.23843794 4.04680182 0 7 C-2.0625 8.25 -2.0625 8.25 -4 9 C-2.94124926 5.59687262 -1.99097846 2.98646769 0 0 Z " fill="#62B8D2" transform="translate(198,141)"/>
<path d="M0 0 C2.31 0 4.62 0 7 0 C7 0.66 7 1.32 7 2 C4.69 2.33 2.38 2.66 0 3 C0 2.01 0 1.02 0 0 Z " fill="#3F95DE" transform="translate(176,28)"/>
<path d="M0 0 C0.66 0 1.32 0 2 0 C0.25 5.75 0.25 5.75 -2 8 C-2.6875 6.25 -2.6875 6.25 -3 4 C-1.6875 1.75 -1.6875 1.75 0 0 Z " fill="#5CA9DE" transform="translate(87,145)"/>
</svg>
